<svg xmlns="http://www.w3.org/2000/svg" width="72" height="72" viewBox="0 0 72 72">
    <g fill="none" fill-rule="evenodd">
        <g>
            <circle cx="36" cy="36" r="30" fill="#FF9100"/>
            <circle cx="36" cy="36" r="36" fill="#FF9100" opacity=".2"/>
            <g fill="#FFF" fill-rule="nonzero">
                <path d="M19.318 0c1.021.037 1.995.44 2.743 1.136L25 4.075c.323.268.719.432 1.136.47h3.41c2.51 0 4.545 2.036 4.545 4.546v11.364c0 2.51-2.035 4.545-4.546 4.545h-25C2.035 25 0 22.965 0 20.455V9.09c0-2.51 2.035-4.546 4.545-4.546h3.41c.417-.038.813-.202 1.136-.47l2.939-2.939C12.778.44 13.752.037 14.773 0h4.545zm-2.273 7.955c-3.765 0-6.818 3.052-6.818 6.818 0 3.765 3.053 6.818 6.818 6.818 3.766 0 6.819-3.053 6.819-6.818 0-3.766-3.053-6.818-6.819-6.818z" transform="translate(18.5 23.5)"/>
            </g>
        </g>
    </g>
</svg>
