<svg xmlns="http://www.w3.org/2000/svg" width="24" height="24" viewBox="0 0 24 24">
    <g fill="none" fill-rule="evenodd">
        <g fill="#8A8A8A" fill-rule="nonzero">
            <g>
                <path d="M8.343 19.034c-3.657 0-6.62-2.964-6.62-6.62 0-3.657 2.963-6.62 6.62-6.62.081 0 .154.048.185.123s.014.161-.043.219L6.93 7.69c-.215.208-.301.515-.225.805.075.289.301.515.59.59.29.076.598-.01.805-.225l3.31-3.31c.156-.156.244-.366.244-.586 0-.22-.088-.431-.243-.586L8.1 1.069C7.892.852 7.584.766 7.295.842c-.29.075-.516.301-.591.59-.076.29.01.598.225.806l1.555 1.555c.058.057.076.144.045.22-.031.075-.105.124-.187.124-4.57 0-8.276 3.705-8.276 8.276 0 4.57 3.705 8.276 8.276 8.276.457 0 .827-.37.827-.828 0-.457-.37-.828-.827-.828z"/>
            </g>
            <g>
                <path d="M8.343 19.034c-3.657 0-6.62-2.964-6.62-6.62 0-3.657 2.963-6.62 6.62-6.62.081 0 .154.048.185.123s.014.161-.043.219L6.93 7.69c-.215.208-.301.515-.225.805.075.289.301.515.59.59.29.076.598-.01.805-.225l3.31-3.31c.156-.156.244-.366.244-.586 0-.22-.088-.431-.243-.586L8.1 1.069C7.892.852 7.584.766 7.295.842c-.29.075-.516.301-.591.59-.076.29.01.598.225.806l1.555 1.555c.058.057.076.144.045.22-.031.075-.105.124-.187.124-4.57 0-8.276 3.705-8.276 8.276 0 4.57 3.705 8.276 8.276 8.276.457 0 .827-.37.827-.828 0-.457-.37-.828-.827-.828z" transform="rotate(180 11.586 12)"/>
            </g>
        </g>
    </g>
</svg>
